TITLE ""
FILE "Step1_Track01.mp3" MP3
  TRACK 01 AUDIO
    TITLE "Step1_Track01_01"
    INDEX 01 00:00:00
  TRACK 02 AUDIO
    TITLE "Step1_Track01_02"
    INDEX 01 00:00:20
  TRACK 03 AUDIO
    TITLE "Step1_Track01_03"
    INDEX 01 00:01:47
  TRACK 04 AUDIO
    TITLE "Step1_Track01_04"
    INDEX 01 00:02:25
  TRACK 05 AUDIO
    TITLE "Step1_Track01_05"
    INDEX 01 00:03:18
  TRACK 06 AUDIO
    TITLE "Step1_Track01_06"
    INDEX 01 00:03:52
  TRACK 07 AUDIO
    TITLE "Step1_Track01_07"
    INDEX 01 00:05:55
  TRACK 08 AUDIO
    TITLE "Step1_Track01_08"
    INDEX 01 00:06:11
  TRACK 09 AUDIO
    TITLE "Step1_Track01_09"
    INDEX 01 00:07:06
  TRACK 10 AUDIO
    TITLE "Step1_Track01_10"
    INDEX 01 00:07:10
  TRACK 11 AUDIO
    TITLE "Step1_Track01_11"
    INDEX 01 00:09:33
  TRACK 12 AUDIO
    TITLE "Step1_Track01_12"
    INDEX 01 00:09:56
  TRACK 13 AUDIO
    TITLE "Step1_Track01_13"
    INDEX 01 00:10:58
  TRACK 14 AUDIO
    TITLE "Step1_Track01_14"
    INDEX 01 00:10:66
  TRACK 15 AUDIO
    TITLE "Step1_Track01_15"
    INDEX 01 00:13:23
  TRACK 16 AUDIO
    TITLE "Step1_Track01_16"
    INDEX 01 00:13:46
  TRACK 17 AUDIO
    TITLE "Step1_Track01_17"
    INDEX 01 00:14:50
  TRACK 18 AUDIO
    TITLE "Step1_Track01_18"
    INDEX 01 00:14:57
  TRACK 19 AUDIO
    TITLE "Step1_Track01_19"
    INDEX 01 00:17:26
  TRACK 20 AUDIO
    TITLE "Step1_Track01_20"
    INDEX 01 00:17:46
  TRACK 21 AUDIO
    TITLE "Step1_Track01_21"
    INDEX 01 00:18:43
  TRACK 22 AUDIO
    TITLE "Step1_Track01_22"
    INDEX 01 00:18:63
  TRACK 23 AUDIO
    TITLE "Step1_Track01_23"
    INDEX 01 00:20:58
  TRACK 24 AUDIO
    TITLE "Step1_Track01_24"
    INDEX 01 00:21:18
  TRACK 25 AUDIO
    TITLE "Step1_Track01_25"
    INDEX 01 00:22:20
  TRACK 26 AUDIO
    TITLE "Step1_Track01_26"
    INDEX 01 00:22:30
  TRACK 27 AUDIO
    TITLE "Step1_Track01_27"
    INDEX 01 00:24:54
  TRACK 28 AUDIO
    TITLE "Step1_Track01_28"
    INDEX 01 00:24:68
  TRACK 29 AUDIO
    TITLE "Step1_Track01_29"
    INDEX 01 00:25:67
  TRACK 30 AUDIO
    TITLE "Step1_Track01_30"
    INDEX 01 00:26:02
  TRACK 31 AUDIO
    TITLE "Step1_Track01_31"
    INDEX 01 00:27:70
  TRACK 32 AUDIO
    TITLE "Step1_Track01_32"
    INDEX 01 00:28:22
  TRACK 33 AUDIO
    TITLE "Step1_Track01_33"
    INDEX 01 00:29:14
  TRACK 34 AUDIO
    TITLE "Step1_Track01_34"
    INDEX 01 00:29:24
  TRACK 35 AUDIO
    TITLE "Step1_Track01_35"
    INDEX 01 00:31:68
  TRACK 36 AUDIO
    TITLE "Step1_Track01_36"
    INDEX 01 00:32:18
  TRACK 37 AUDIO
    TITLE "Step1_Track01_37"
    INDEX 01 00:33:18
  TRACK 38 AUDIO
    TITLE "Step1_Track01_38"
    INDEX 01 00:33:27
  TRACK 39 AUDIO
    TITLE "Step1_Track01_39"
    INDEX 01 00:35:32
  TRACK 40 AUDIO
    TITLE "Step1_Track01_40"
    INDEX 01 00:35:64
  TRACK 41 AUDIO
    TITLE "Step1_Track01_41"
    INDEX 01 00:36:53
  TRACK 42 AUDIO
    TITLE "Step1_Track01_42"
    INDEX 01 00:37:04
  TRACK 43 AUDIO
    TITLE "Step1_Track01_43"
    INDEX 01 00:39:44
